<?xml version="1.0" encoding="UTF-8" standalone="no"?>
<svg
   xmlns:dc="http://purl.org/dc/elements/1.1/"
   xmlns:cc="http://creativecommons.org/ns#"
   xmlns:rdf="http://www.w3.org/1999/02/22-rdf-syntax-ns#"
   xmlns:svg="http://www.w3.org/2000/svg"
   xmlns="http://www.w3.org/2000/svg"
   xmlns:sodipodi="http://sodipodi.sourceforge.net/DTD/sodipodi-0.dtd"
   xmlns:inkscape="http://www.inkscape.org/namespaces/inkscape"
   width="15.999998mm"
   height="16mm"
   viewBox="0 0 15.999998 16"
   version="1.1"
   id="svg839"
   inkscape:version="1.0.2-2 (e86c870879, 2021-01-15)"
   sodipodi:docname="code.svg">
  <defs
     id="defs833" />
  <sodipodi:namedview
     id="base"
     pagecolor="#ffffff"
     bordercolor="#666666"
     borderopacity="1.0"
     inkscape:pageopacity="0.0"
     inkscape:pageshadow="2"
     inkscape:zoom="5.6"
     inkscape:cx="28.649059"
     inkscape:cy="23.561051"
     inkscape:document-units="mm"
     inkscape:current-layer="layer1"
     inkscape:document-rotation="0"
     showgrid="false"
     inkscape:window-width="1920"
     inkscape:window-height="1027"
     inkscape:window-x="1432"
     inkscape:window-y="1141"
     inkscape:window-maximized="1"
     inkscape:snap-page="true"
     inkscape:snap-text-baseline="true"
     inkscape:snap-center="true"
     inkscape:snap-object-midpoints="true"
     inkscape:snap-midpoints="true"
     inkscape:snap-smooth-nodes="true"
     inkscape:snap-intersection-paths="true"
     inkscape:object-paths="true"
     inkscape:snap-bbox="true"
     inkscape:bbox-paths="true"
     inkscape:bbox-nodes="true"
     inkscape:snap-bbox-edge-midpoints="true"
     inkscape:snap-bbox-midpoints="true"
     showguides="true"
     inkscape:guide-bbox="true"
     inkscape:snap-global="true" />
  <metadata
     id="metadata836">
    <rdf:RDF>
      <cc:Work
         rdf:about="">
        <dc:format>image/svg+xml</dc:format>
        <dc:type
           rdf:resource="http://purl.org/dc/dcmitype/StillImage" />
        <dc:title />
      </cc:Work>
    </rdf:RDF>
  </metadata>
  <g
     inkscape:label="Layer 1"
     inkscape:groupmode="layer"
     id="layer1"
     transform="translate(-86.177523,-101.53111)">
    <path
       id="path1481"
       style="color:#000000;font-style:normal;font-variant:normal;font-weight:normal;font-stretch:normal;font-size:medium;line-height:normal;font-family:sans-serif;font-variant-ligatures:normal;font-variant-position:normal;font-variant-caps:normal;font-variant-numeric:normal;font-variant-alternates:normal;font-variant-east-asian:normal;font-feature-settings:normal;font-variation-settings:normal;text-indent:0;text-align:start;text-decoration:none;text-decoration-line:none;text-decoration-style:solid;text-decoration-color:#000000;letter-spacing:normal;word-spacing:normal;text-transform:none;writing-mode:lr-tb;direction:ltr;text-orientation:mixed;dominant-baseline:auto;baseline-shift:baseline;text-anchor:start;white-space:normal;shape-padding:0;shape-margin:0;inline-size:0;clip-rule:nonzero;display:inline;overflow:visible;visibility:visible;isolation:auto;mix-blend-mode:normal;color-interpolation:sRGB;color-interpolation-filters:linearRGB;solid-color:#000000;solid-opacity:1;vector-effect:none;fill:#ffffff;fill-opacity:1;fill-rule:nonzero;stroke:none;stroke-width:0.246144;stroke-linecap:round;stroke-linejoin:round;stroke-miterlimit:4;stroke-dasharray:none;stroke-dashoffset:0;stroke-opacity:1;color-rendering:auto;image-rendering:auto;shape-rendering:auto;text-rendering:auto;enable-background:accumulate;stop-color:#000000"
       d="m 95.208042,103.47969 a 0.12308432,0.12308432 0 0 0 -0.113813,0.082 l -3.924166,11.20653 a 0.12308432,0.12308432 0 0 0 0.0757,0.15683 l 1.857829,0.65084 a 0.12308432,0.12308432 0 0 0 0.156703,-0.0757 l 3.925199,-11.20666 a 0.12308432,0.12308432 0 0 0 -0.0757,-0.1567 l -1.858346,-0.65033 a 0.12308432,0.12308432 0 0 0 -0.04341,-0.007 z m -5.425569,0.74695 a 0.12308432,0.12308432 0 0 0 -0.101153,0.0543 l -3.482736,5.18141 a 0.12308432,0.12308432 0 0 0 0,0.13771 l 3.482736,5.18102 a 0.12308432,0.12308432 0 0 0 0.170913,0.0332 l 1.633691,-1.0977 a 0.12308432,0.12308432 0 0 0 0.03372,-0.17091 l -2.69767,-4.01447 2.69767,-4.01446 a 0.12308432,0.12308432 0 0 0 -0.03372,-0.1704 l -1.633691,-1.0986 a 0.12308432,0.12308432 0 0 0 -0.06976,-0.0211 z m 8.792166,0 a 0.12308432,0.12308432 0 0 0 -0.07131,0.0205 l -1.634724,1.09912 a 0.12308432,0.12308432 0 0 0 -0.0332,0.1704 l 2.698187,4.01446 -2.698187,4.01447 a 0.12308432,0.12308432 0 0 0 0.0332,0.17091 l 1.634724,1.0977 a 0.12308432,0.12308432 0 0 0 0.170914,-0.0332 l 3.482217,-5.18102 a 0.12308432,0.12308432 0 0 0 0,-0.13771 l -3.482217,-5.18141 a 0.12308432,0.12308432 0 0 0 -0.0996,-0.0543 z" />
  </g>
</svg>
